<?xml version="1.0" encoding="UTF-8"?>
<svg width="992" height="768" viewBox="0 0 992 768" xmlns="http://www.w3.org/2000/svg">
  <!-- Desktop Product Page Wireframe -->
  
  <!-- Header -->
  <rect x="0" y="0" width="992" height="80" fill="#2c3e50" stroke="#34495e" stroke-width="1"/>
  <text x="40" y="45" font-family="Arial, sans-serif" font-size="24" font-weight="bold" fill="white">FoodNow</text>
  
  <!-- Main Navigation -->
  <text x="200" y="45" font-family="Arial, sans-serif" font-size="16" fill="white">Home</text>
  <text x="270" y="45" font-family="Arial, sans-serif" font-size="16" fill="#3498db">Menu</text>
  <text x="340" y="45" font-family="Arial, sans-serif" font-size="16" fill="white">About</text>
  <text x="410" y="45" font-family="Arial, sans-serif" font-size="16" fill="white">Contact</text>
  
  <!-- Search Bar -->
  <rect x="500" y="30" width="250" height="30" fill="white" stroke="#bdc3c7" stroke-width="1" rx="15"/>
  <text x="520" y="48" font-family="Arial, sans-serif" font-size="12" fill="#7f8c8d">Search products...</text>
  
  <!-- Cart -->
  <g transform="translate(900, 30)">
    <circle cx="15" cy="15" r="12" fill="none" stroke="white" stroke-width="2"/>
    <circle cx="18" cy="12" r="5" fill="#e74c3c"/>
    <text x="18" y="16" text-anchor="middle" fill="white" font-size="10">3</text>
    <text x="15" y="55" text-anchor="middle" fill="white" font-size="10">Cart</text>
  </g>
  
  <!-- Breadcrumb -->
  <rect x="0" y="80" width="992" height="40" fill="#ecf0f1" stroke="#bdc3c7" stroke-width="1"/>
  <text x="40" y="102" font-family="Arial, sans-serif" font-size="12" fill="#7f8c8d">Home > Menu > Pizza</text>
  
  <!-- Sidebar (Categories) -->
  <rect x="0" y="120" width="200" height="648" fill="white" stroke="#bdc3c7" stroke-width="1"/>
  <text x="20" y="145" font-family="Arial, sans-serif" font-size="16" font-weight="bold" fill="#2c3e50">Categories</text>
  
  <rect x="20" y="160" width="160" height="30" fill="#3498db" stroke="#2980b9" stroke-width="1" rx="4"/>
  <text x="100" y="178" font-family="Arial, sans-serif" font-size="12" text-anchor="middle" fill="white"> Pizza (24)</text>
  
  <rect x="20" y="200" width="160" height="30" fill="white" stroke="#bdc3c7" stroke-width="1" rx="4"/>
  <text x="100" y="218" font-family="Arial, sans-serif" font-size="12" text-anchor="middle" fill="#2c3e50"> Burgers (18)</text>
  
  <rect x="20" y="240" width="160" height="30" fill="white" stroke="#bdc3c7" stroke-width="1" rx="4"/>
  <text x="100" y="258" font-family="Arial, sans-serif" font-size="12" text-anchor="middle" fill="#2c3e50"> Asian (32)</text>
  
  <rect x="20" y="280" width="160" height="30" fill="white" stroke="#bdc3c7" stroke-width="1" rx="4"/>
  <text x="100" y="298" font-family="Arial, sans-serif" font-size="12" text-anchor="middle" fill="#2c3e50"> Salads (15)</text>
  
  <rect x="20" y="320" width="160" height="30" fill="white" stroke="#bdc3c7" stroke-width="1" rx="4"/>
  <text x="100" y="338" font-family="Arial, sans-serif" font-size="12" text-anchor="middle" fill="#2c3e50"> Drinks (12)</text>
  
  <!-- Filter Options -->
  <text x="20" y="380" font-family="Arial, sans-serif" font-size="14" font-weight="bold" fill="#2c3e50">Filters</text>
  
  <text x="20" y="405" font-family="Arial, sans-serif" font-size="12" fill="#2c3e50">Price Range</text>
  <rect x="20" y="415" width="160" height="20" fill="#ecf0f1" stroke="#bdc3c7" stroke-width="1" rx="10"/>
  <circle cx="50" cy="425" r="5" fill="#3498db"/>
  <circle cx="130" cy="425" r="5" fill="#3498db"/>
  <text x="20" y="445" font-family="Arial, sans-serif" font-size="10" fill="#7f8c8d">$5 - $25</text>
  
  <text x="20" y="470" font-family="Arial, sans-serif" font-size="12" fill="#2c3e50">Rating</text>
  <g transform="translate(20, 480)">
    <rect x="0" y="0" width="10" height="10" fill="white" stroke="#bdc3c7" stroke-width="1"/>
    <text x="15" y="9" font-family="Arial, sans-serif" font-size="10" fill="#2c3e50">4+ Stars</text>
  </g>
  <g transform="translate(20, 500)">
    <rect x="0" y="0" width="10" height="10" fill="#3498db" stroke="#2980b9" stroke-width="1"/>
    <text x="15" y="9" font-family="Arial, sans-serif" font-size="10" fill="#2c3e50">3+ Stars</text>
  </g>
  
  <!-- Main Content Area -->
  <rect x="200" y="120" width="792" height="648" fill="#f8f9fa" stroke="#dee2e6" stroke-width="1"/>
  
  <!-- Header with sorting -->
  <rect x="220" y="140" width="752" height="40" fill="white" stroke="#bdc3c7" stroke-width="1"/>
  <text x="240" y="165" font-family="Arial, sans-serif" font-size="18" font-weight="bold" fill="#2c3e50">Pizza Menu (24 items)</text>
  
  <text x="700" y="165" font-family="Arial, sans-serif" font-size="12" fill="#7f8c8d">Sort by:</text>
  <rect x="750" y="150" width="100" height="20" fill="white" stroke="#bdc3c7" stroke-width="1" rx="4"/>
  <text x="800" y="162" font-family="Arial, sans-serif" font-size="10" text-anchor="middle" fill="#2c3e50">Popularity </text>
  
  <text x="870" y="165" font-family="Arial, sans-serif" font-size="12" fill="#7f8c8d">View:</text>
  <rect x="910" y="150" width="50" height="20" fill="#3498db" stroke="#2980b9" stroke-width="1" rx="4"/>
  <text x="935" y="162" font-family="Arial, sans-serif" font-size="10" text-anchor="middle" fill="white">Grid</text>
  
  <!-- Product Grid (3 columns) -->
  <rect x="220" y="200" width="240" height="150" fill="white" stroke="#bdc3c7" stroke-width="1" rx="8"/>
  <rect x="240" y="220" width="200" height="80" fill="#ffe4e1" rx="4"/>
  <text x="340" y="265" font-family="Arial, sans-serif" font-size="20" text-anchor="middle"></text>
  <text x="240" y="315" font-family="Arial, sans-serif" font-size="14" font-weight="bold">Margherita Pizza</text>
  <text x="240" y="330" font-family="Arial, sans-serif" font-size="10" fill="#7f8c8d">Fresh tomatoes, mozzarella, basil</text>
  <text x="240" y="345" font-family="Arial, sans-serif" font-size="10" fill="#7f8c8d"> 4.5 (128 reviews)</text>
  <text x="350" y="345" font-family="Arial, sans-serif" font-size="14" font-weight="bold" fill="#27ae60">$15.99</text>
  <rect x="390" y="325" width="60" height="25" fill="#27ae60" rx="12"/>
  <text x="420" y="340" font-family="Arial, sans-serif" font-size="10" text-anchor="middle" fill="white">Add to Cart</text>
  
  <rect x="480" y="200" width="240" height="150" fill="white" stroke="#bdc3c7" stroke-width="1" rx="8"/>
  <rect x="500" y="220" width="200" height="80" fill="#ffe4e1" rx="4"/>
  <text x="600" y="265" font-family="Arial, sans-serif" font-size="20" text-anchor="middle"></text>
  <text x="500" y="315" font-family="Arial, sans-serif" font-size="14" font-weight="bold">Pepperoni Pizza</text>
  <text x="500" y="330" font-family="Arial, sans-serif" font-size="10" fill="#7f8c8d">Pepperoni, mozzarella, tomato sauce</text>
  <text x="500" y="345" font-family="Arial, sans-serif" font-size="10" fill="#7f8c8d"> 4.7 (98 reviews)</text>
  <text x="610" y="345" font-family="Arial, sans-serif" font-size="14" font-weight="bold" fill="#27ae60">$18.99</text>
  <rect x="650" y="325" width="60" height="25" fill="#27ae60" rx="12"/>
  <text x="680" y="340" font-family="Arial, sans-serif" font-size="10" text-anchor="middle" fill="white">Add to Cart</text>
  
  <rect x="740" y="200" width="240" height="150" fill="white" stroke="#bdc3c7" stroke-width="1" rx="8"/>
  <rect x="760" y="220" width="200" height="80" fill="#ffe4e1" rx="4"/>
  <text x="860" y="265" font-family="Arial, sans-serif" font-size="20" text-anchor="middle"></text>
  <text x="760" y="315" font-family="Arial, sans-serif" font-size="14" font-weight="bold">Veggie Supreme</text>
  <text x="760" y="330" font-family="Arial, sans-serif" font-size="10" fill="#7f8c8d">Peppers, mushrooms, onions, olives</text>
  <text x="760" y="345" font-family="Arial, sans-serif" font-size="10" fill="#7f8c8d"> 4.3 (76 reviews)</text>
  <text x="870" y="345" font-family="Arial, sans-serif" font-size="14" font-weight="bold" fill="#27ae60">$17.99</text>
  <rect x="910" y="325" width="60" height="25" fill="#27ae60" rx="12"/>
  <text x="940" y="340" font-family="Arial, sans-serif" font-size="10" text-anchor="middle" fill="white">Add to Cart</text>
  
  <!-- Second Row -->
  <rect x="220" y="370" width="240" height="150" fill="white" stroke="#bdc3c7" stroke-width="1" rx="8"/>
  <rect x="240" y="390" width="200" height="80" fill="#ffe4e1" rx="4"/>
  <text x="340" y="435" font-family="Arial, sans-serif" font-size="20" text-anchor="middle"></text>
  <text x="240" y="485" font-family="Arial, sans-serif" font-size="14" font-weight="bold">Hawaiian Pizza</text>
  <text x="240" y="500" font-family="Arial, sans-serif" font-size="10" fill="#7f8c8d">Ham, pineapple, mozzarella</text>
  <text x="240" y="515" font-family="Arial, sans-serif" font-size="10" fill="#7f8c8d"> 4.2 (89 reviews)</text>
  <text x="350" y="515" font-family="Arial, sans-serif" font-size="14" font-weight="bold" fill="#27ae60">$16.99</text>
  <rect x="390" y="495" width="60" height="25" fill="#27ae60" rx="12"/>
  <text x="420" y="510" font-family="Arial, sans-serif" font-size="10" text-anchor="middle" fill="white">Add to Cart</text>
  
  <rect x="480" y="370" width="240" height="150" fill="white" stroke="#bdc3c7" stroke-width="1" rx="8"/>
  <rect x="500" y="390" width="200" height="80" fill="#ffe4e1" rx="4"/>
  <text x="600" y="435" font-family="Arial, sans-serif" font-size="20" text-anchor="middle"></text>
  <text x="500" y="485" font-family="Arial, sans-serif" font-size="14" font-weight="bold">Meat Lovers</text>
  <text x="500" y="500" font-family="Arial, sans-serif" font-size="10" fill="#7f8c8d">Pepperoni, sausage, ham, bacon</text>
  <text x="500" y="515" font-family="Arial, sans-serif" font-size="10" fill="#7f8c8d"> 4.6 (112 reviews)</text>
  <text x="610" y="515" font-family="Arial, sans-serif" font-size="14" font-weight="bold" fill="#27ae60">$21.99</text>
  <rect x="650" y="495" width="60" height="25" fill="#27ae60" rx="12"/>
  <text x="680" y="510" font-family="Arial, sans-serif" font-size="10" text-anchor="middle" fill="white">Add to Cart</text>
  
  <rect x="740" y="370" width="240" height="150" fill="white" stroke="#bdc3c7" stroke-width="1" rx="8"/>
  <rect x="760" y="390" width="200" height="80" fill="#ffe4e1" rx="4"/>
  <text x="860" y="435" font-family="Arial, sans-serif" font-size="20" text-anchor="middle"></text>
  <text x="760" y="485" font-family="Arial, sans-serif" font-size="14" font-weight="bold">BBQ Chicken</text>
  <text x="760" y="500" font-family="Arial, sans-serif" font-size="10" fill="#7f8c8d">BBQ sauce, chicken, red onions</text>
  <text x="760" y="515" font-family="Arial, sans-serif" font-size="10" fill="#7f8c8d"> 4.4 (67 reviews)</text>
  <text x="870" y="515" font-family="Arial, sans-serif" font-size="14" font-weight="bold" fill="#27ae60">$19.99</text>
  <rect x="910" y="495" width="60" height="25" fill="#27ae60" rx="12"/>
  <text x="940" y="510" font-family="Arial, sans-serif" font-size="10" text-anchor="middle" fill="white">Add to Cart</text>
  
  <!-- Pagination -->
  <rect x="220" y="540" width="752" height="50" fill="white" stroke="#bdc3c7" stroke-width="1"/>
  <text x="400" y="568" font-family="Arial, sans-serif" font-size="12" fill="#7f8c8d">Showing 1-6 of 24 products</text>
  
  <rect x="600" y="555" width="30" height="30" fill="#3498db" stroke="#2980b9" stroke-width="1" rx="4"/>
  <text x="615" y="572" font-family="Arial, sans-serif" font-size="12" text-anchor="middle" fill="white">1</text>
  
  <rect x="640" y="555" width="30" height="30" fill="white" stroke="#bdc3c7" stroke-width="1" rx="4"/>
  <text x="655" y="572" font-family="Arial, sans-serif" font-size="12" text-anchor="middle" fill="#7f8c8d">2</text>
  
  <rect x="680" y="555" width="30" height="30" fill="white" stroke="#bdc3c7" stroke-width="1" rx="4"/>
  <text x="695" y="572" font-family="Arial, sans-serif" font-size="12" text-anchor="middle" fill="#7f8c8d">3</text>
  
  <rect x="720" y="555" width="30" height="30" fill="white" stroke="#bdc3c7" stroke-width="1" rx="4"/>
  <text x="735" y="572" font-family="Arial, sans-serif" font-size="12" text-anchor="middle" fill="#7f8c8d">4</text>
</svg>
