<?xml version="1.0" encoding="UTF-8"?>
<svg width="992" height="768" viewBox="0 0 992 768" xmlns="http://www.w3.org/2000/svg">
  <!-- Desktop Home Page Wireframe (992px+) -->
  
  <!-- Header -->
  <rect x="0" y="0" width="992" height="80" fill="#2c3e50" stroke="#34495e" stroke-width="1"/>
  <text x="40" y="45" font-family="Arial, sans-serif" font-size="24" font-weight="bold" fill="white">FoodNow</text>
  
  <!-- Main Navigation -->
  <text x="200" y="45" font-family="Arial, sans-serif" font-size="16" fill="white">Home</text>
  <text x="270" y="45" font-family="Arial, sans-serif" font-size="16" fill="white">Menu</text>
  <text x="340" y="45" font-family="Arial, sans-serif" font-size="16" fill="white">About</text>
  <text x="410" y="45" font-family="Arial, sans-serif" font-size="16" fill="white">Contact</text>
  
  <!-- Search Bar -->
  <rect x="500" y="30" width="250" height="30" fill="white" stroke="#bdc3c7" stroke-width="1" rx="15"/>
  <text x="520" y="48" font-family="Arial, sans-serif" font-size="12" fill="#7f8c8d">Search for delicious food...</text>
  <circle cx="730" cy="45" r="10" fill="#3498db"/>
  
  <!-- User Actions -->
  <rect x="800" y="30" width="80" height="25" fill="transparent" stroke="white" stroke-width="1" rx="12"/>
  <text x="840" y="45" font-family="Arial, sans-serif" font-size="12" text-anchor="middle" fill="white">Login</text>
  
  <!-- Cart Icon -->
  <g transform="translate(900, 30)">
    <circle cx="15" cy="15" r="12" fill="none" stroke="white" stroke-width="2"/>
    <circle cx="18" cy="12" r="5" fill="#e74c3c"/>
    <text x="18" y="16" text-anchor="middle" fill="white" font-size="10">2</text>
    <text x="15" y="55" text-anchor="middle" fill="white" font-size="10">Cart</text>
  </g>
  
  <!-- Hero Section -->
  <rect x="0" y="80" width="992" height="300" fill="#3498db" stroke="#2980b9" stroke-width="1"/>
  <rect x="100" y="130" width="792" height="200" fill="#ecf0f1" stroke="#bdc3c7" stroke-width="1" rx="12"/>
  <text x="496" y="200" font-family="Arial, sans-serif" font-size="32" font-weight="bold" text-anchor="middle" fill="#2c3e50">HERO IMAGE</text>
  <text x="496" y="230" font-family="Arial, sans-serif" font-size="18" text-anchor="middle" fill="#2c3e50">Delicious Food Delivered Fast</text>
  <text x="496" y="250" font-family="Arial, sans-serif" font-size="14" text-anchor="middle" fill="#7f8c8d">Order from your favorite restaurants</text>
  
  <!-- CTA Buttons -->
  <rect x="396" y="270" width="100" height="40" fill="#27ae60" stroke="#229954" stroke-width="1" rx="20"/>
  <text x="446" y="293" font-family="Arial, sans-serif" font-size="14" text-anchor="middle" fill="white">Order Now</text>
  
  <rect x="506" y="270" width="100" height="40" fill="transparent" stroke="#27ae60" stroke-width="2" rx="20"/>
  <text x="556" y="293" font-family="Arial, sans-serif" font-size="14" text-anchor="middle" fill="#27ae60">Learn More</text>
  
  <!-- Categories Section -->
  <rect x="0" y="380" width="992" height="200" fill="white" stroke="#bdc3c7" stroke-width="1"/>
  <text x="40" y="420" font-family="Arial, sans-serif" font-size="24" font-weight="bold" fill="#2c3e50">Popular Categories</text>
  
  <!-- Category Grid (4 columns) -->
  <rect x="40" y="440" width="220" height="120" fill="#ecf0f1" stroke="#bdc3c7" stroke-width="1" rx="8"/>
  <rect x="60" y="460" width="180" height="60" fill="#ffe4e1" rx="6"/>
  <text x="150" y="495" font-family="Arial, sans-serif" font-size="18" text-anchor="middle" fill="#2c3e50"> Pizza</text>
  <text x="150" y="520" font-family="Arial, sans-serif" font-size="12" text-anchor="middle" fill="#7f8c8d">15 restaurants</text>
  <text x="150" y="540" font-family="Arial, sans-serif" font-size="12" text-anchor="middle" fill="#7f8c8d">Starting from $12.99</text>
  
  <rect x="280" y="440" width="220" height="120" fill="#ecf0f1" stroke="#bdc3c7" stroke-width="1" rx="8"/>
  <rect x="300" y="460" width="180" height="60" fill="#e1f5fe" rx="6"/>
  <text x="390" y="495" font-family="Arial, sans-serif" font-size="18" text-anchor="middle" fill="#2c3e50"> Burgers</text>
  <text x="390" y="520" font-family="Arial, sans-serif" font-size="12" text-anchor="middle" fill="#7f8c8d">12 restaurants</text>
  <text x="390" y="540" font-family="Arial, sans-serif" font-size="12" text-anchor="middle" fill="#7f8c8d">Starting from $8.99</text>
  
  <rect x="520" y="440" width="220" height="120" fill="#ecf0f1" stroke="#bdc3c7" stroke-width="1" rx="8"/>
  <rect x="540" y="460" width="180" height="60" fill="#f3e5f5" rx="6"/>
  <text x="630" y="495" font-family="Arial, sans-serif" font-size="18" text-anchor="middle" fill="#2c3e50"> Asian</text>
  <text x="630" y="520" font-family="Arial, sans-serif" font-size="12" text-anchor="middle" fill="#7f8c8d">20 restaurants</text>
  <text x="630" y="540" font-family="Arial, sans-serif" font-size="12" text-anchor="middle" fill="#7f8c8d">Starting from $10.99</text>
  
  <rect x="760" y="440" width="220" height="120" fill="#ecf0f1" stroke="#bdc3c7" stroke-width="1" rx="8"/>
  <rect x="780" y="460" width="180" height="60" fill="#e8f5e8" rx="6"/>
  <text x="870" y="495" font-family="Arial, sans-serif" font-size="18" text-anchor="middle" fill="#2c3e50"> Healthy</text>
  <text x="870" y="520" font-family="Arial, sans-serif" font-size="12" text-anchor="middle" fill="#7f8c8d">8 restaurants</text>
  <text x="870" y="540" font-family="Arial, sans-serif" font-size="12" text-anchor="middle" fill="#7f8c8d">Starting from $9.99</text>
  
  <!-- Featured Products Section -->
  <rect x="0" y="580" width="992" height="140" fill="#f8f9fa" stroke="#dee2e6" stroke-width="1"/>
  <text x="40" y="620" font-family="Arial, sans-serif" font-size="24" font-weight="bold" fill="#2c3e50">Featured Today</text>
  
  <!-- Product Cards (3 columns) -->
  <rect x="40" y="630" width="300" height="80" fill="white" stroke="#bdc3c7" stroke-width="1" rx="8"/>
  <rect x="60" y="650" width="60" height="40" fill="#ffe4e1" rx="4"/>
  <text x="90" y="673" font-family="Arial, sans-serif" font-size="12" text-anchor="middle"></text>
  <text x="140" y="655" font-family="Arial, sans-serif" font-size="16" font-weight="bold">Margherita Pizza</text>
  <text x="140" y="675" font-family="Arial, sans-serif" font-size="12" fill="#7f8c8d">Fresh tomatoes, mozzarella, basil</text>
  <text x="140" y="690" font-family="Arial, sans-serif" font-size="14" font-weight="bold" fill="#27ae60">$15.99</text>
  <rect x="270" y="680" width="60" height="25" fill="#27ae60" rx="12"/>
  <text x="300" y="695" font-family="Arial, sans-serif" font-size="12" text-anchor="middle" fill="white">Add</text>
  
  <rect x="360" y="630" width="300" height="80" fill="white" stroke="#bdc3c7" stroke-width="1" rx="8"/>
  <rect x="380" y="650" width="60" height="40" fill="#e1f5fe" rx="4"/>
  <text x="410" y="673" font-family="Arial, sans-serif" font-size="12" text-anchor="middle"></text>
  <text x="460" y="655" font-family="Arial, sans-serif" font-size="16" font-weight="bold">Classic Burger</text>
  <text x="460" y="675" font-family="Arial, sans-serif" font-size="12" fill="#7f8c8d">Beef patty, lettuce, tomato, cheese</text>
  <text x="460" y="690" font-family="Arial, sans-serif" font-size="14" font-weight="bold" fill="#27ae60">$12.99</text>
  <rect x="590" y="680" width="60" height="25" fill="#27ae60" rx="12"/>
  <text x="620" y="695" font-family="Arial, sans-serif" font-size="12" text-anchor="middle" fill="white">Add</text>
  
  <rect x="680" y="630" width="300" height="80" fill="white" stroke="#bdc3c7" stroke-width="1" rx="8"/>
  <rect x="700" y="650" width="60" height="40" fill="#f3e5f5" rx="4"/>
  <text x="730" y="673" font-family="Arial, sans-serif" font-size="12" text-anchor="middle"></text>
  <text x="780" y="655" font-family="Arial, sans-serif" font-size="16" font-weight="bold">Chicken Ramen</text>
  <text x="780" y="675" font-family="Arial, sans-serif" font-size="12" fill="#7f8c8d">Rich broth, noodles, chicken, egg</text>
  <text x="780" y="690" font-family="Arial, sans-serif" font-size="14" font-weight="bold" fill="#27ae60">$18.99</text>
  <rect x="910" y="680" width="60" height="25" fill="#27ae60" rx="12"/>
  <text x="940" y="695" font-family="Arial, sans-serif" font-size="12" text-anchor="middle" fill="white">Add</text>
  
  <!-- Footer -->
  <rect x="0" y="720" width="992" height="48" fill="#34495e" stroke="#2c3e50" stroke-width="1"/>
  <text x="40" y="740" font-family="Arial, sans-serif" font-size="12" fill="white"> 2024 FoodNow - Fast Food Delivery Service</text>
  <text x="40" y="755" font-family="Arial, sans-serif" font-size="10" fill="#bdc3c7">Terms | Privacy | Support</text>
  
  <!-- Social Media -->
  <text x="800" y="740" font-family="Arial, sans-serif" font-size="12" fill="white">Follow Us:</text>
  <rect x="870" y="730" width="30" height="20" fill="white" rx="4"/>
  <text x="885" y="742" font-family="Arial, sans-serif" font-size="10" text-anchor="middle" fill="#34495e">Facebook</text>
  <rect x="910" y="730" width="30" height="20" fill="white" rx="4"/>
  <text x="925" y="742" font-family="Arial, sans-serif" font-size="10" text-anchor="middle" fill="#34495e">Twitter</text>
  <rect x="950" y="730" width="30" height="20" fill="white" rx="4"/>
  <text x="965" y="742" font-family="Arial, sans-serif" font-size="10" text-anchor="middle" fill="#34495e">Instagram</text>
</svg>
