<?xml version="1.0" encoding="UTF-8"?>
<svg width="568" height="320" viewBox="0 0 568 320" xmlns="http://www.w3.org/2000/svg">
  <!-- Mobile Landscape Home Page Wireframe (576px-767px) -->
  
  <!-- Header -->
  <rect x="0" y="0" width="568" height="50" fill="#2c3e50" stroke="#34495e" stroke-width="1"/>
  <text x="20" y="30" font-family="Arial, sans-serif" font-size="16" font-weight="bold" fill="white">FoodNow</text>
  
  <!-- Navigation Links -->
  <text x="120" y="30" font-family="Arial, sans-serif" font-size="12" fill="white">Menu</text>
  <text x="170" y="30" font-family="Arial, sans-serif" font-size="12" fill="white">About</text>
  <text x="220" y="30" font-family="Arial, sans-serif" font-size="12" fill="white">Contact</text>
  
  <!-- Cart Icon -->
  <g transform="translate(520, 15)">
    <circle cx="10" cy="10" r="8" fill="none" stroke="white" stroke-width="1"/>
    <circle cx="12" cy="8" r="3" fill="#e74c3c"/>
    <text x="12" y="11" text-anchor="middle" fill="white" font-size="8">2</text>
  </g>
  
  <!-- Search Bar -->
  <rect x="350" y="15" width="150" height="20" fill="white" stroke="#bdc3c7" stroke-width="1" rx="10"/>
  <text x="360" y="27" font-family="Arial, sans-serif" font-size="10" fill="#7f8c8d">Search...</text>
  
  <!-- Hero Section (Left Side) -->
  <rect x="0" y="50" width="284" height="120" fill="#3498db" stroke="#2980b9" stroke-width="1"/>
  <rect x="20" y="70" width="244" height="60" fill="#ecf0f1" stroke="#bdc3c7" stroke-width="1" rx="8"/>
  <text x="142" y="95" font-family="Arial, sans-serif" font-size="12" font-weight="bold" text-anchor="middle" fill="#2c3e50">HERO IMAGE</text>
  <text x="142" y="115" font-family="Arial, sans-serif" font-size="10" text-anchor="middle" fill="#2c3e50">Welcome to FoodNow</text>
  
  <!-- Quick Actions (Right Side) -->
  <rect x="284" y="50" width="284" height="120" fill="#ecf0f1" stroke="#bdc3c7" stroke-width="1"/>
  <text x="300" y="75" font-family="Arial, sans-serif" font-size="12" font-weight="bold" fill="#2c3e50">Quick Order</text>
  
  <!-- Quick Order Grid (2x2) -->
  <rect x="300" y="85" width="120" height="35" fill="white" stroke="#bdc3c7" stroke-width="1" rx="4"/>
  <text x="360" y="105" font-family="Arial, sans-serif" font-size="10" text-anchor="middle" fill="#2c3e50"> Pizza</text>
  
  <rect x="430" y="85" width="120" height="35" fill="white" stroke="#bdc3c7" stroke-width="1" rx="4"/>
  <text x="490" y="105" font-family="Arial, sans-serif" font-size="10" text-anchor="middle" fill="#2c3e50"> Burgers</text>
  
  <rect x="300" y="125" width="120" height="35" fill="white" stroke="#bdc3c7" stroke-width="1" rx="4"/>
  <text x="360" y="145" font-family="Arial, sans-serif" font-size="10" text-anchor="middle" fill="#2c3e50"> Asian</text>
  
  <rect x="430" y="125" width="120" height="35" fill="white" stroke="#bdc3c7" stroke-width="1" rx="4"/>
  <text x="490" y="145" font-family="Arial, sans-serif" font-size="10" text-anchor="middle" fill="#2c3e50"> Salads</text>
  
  <!-- Featured Products Section -->
  <rect x="0" y="170" width="568" height="100" fill="white" stroke="#bdc3c7" stroke-width="1"/>
  <text x="20" y="190" font-family="Arial, sans-serif" font-size="14" font-weight="bold" fill="#2c3e50">Featured Today</text>
  
  <!-- Product Cards (Horizontal Layout) -->
  <rect x="20" y="200" width="170" height="60" fill="#ecf0f1" stroke="#bdc3c7" stroke-width="1" rx="4"/>
  <rect x="30" y="210" width="40" height="30" fill="#ffe4e1" rx="2"/>
  <text x="50" y="227" font-family="Arial, sans-serif" font-size="8" text-anchor="middle"></text>
  <text x="80" y="220" font-family="Arial, sans-serif" font-size="10" font-weight="bold">Margherita Pizza</text>
  <text x="80" y="235" font-family="Arial, sans-serif" font-size="8" fill="#7f8c8d">$15.99</text>
  <rect x="140" y="240" width="40" height="15" fill="#27ae60" rx="7"/>
  <text x="160" y="250" font-family="Arial, sans-serif" font-size="8" text-anchor="middle" fill="white">Add</text>
  
  <rect x="200" y="200" width="170" height="60" fill="#ecf0f1" stroke="#bdc3c7" stroke-width="1" rx="4"/>
  <rect x="210" y="210" width="40" height="30" fill="#e1f5fe" rx="2"/>
  <text x="230" y="227" font-family="Arial, sans-serif" font-size="8" text-anchor="middle"></text>
  <text x="260" y="220" font-family="Arial, sans-serif" font-size="10" font-weight="bold">Classic Burger</text>
  <text x="260" y="235" font-family="Arial, sans-serif" font-size="8" fill="#7f8c8d">$12.99</text>
  <rect x="320" y="240" width="40" height="15" fill="#27ae60" rx="7"/>
  <text x="340" y="250" font-family="Arial, sans-serif" font-size="8" text-anchor="middle" fill="white">Add</text>
  
  <rect x="380" y="200" width="170" height="60" fill="#ecf0f1" stroke="#bdc3c7" stroke-width="1" rx="4"/>
  <rect x="390" y="210" width="40" height="30" fill="#f3e5f5" rx="2"/>
  <text x="410" y="227" font-family="Arial, sans-serif" font-size="8" text-anchor="middle"></text>
  <text x="440" y="220" font-family="Arial, sans-serif" font-size="10" font-weight="bold">Ramen Bowl</text>
  <text x="440" y="235" font-family="Arial, sans-serif" font-size="8" fill="#7f8c8d">$18.99</text>
  <rect x="500" y="240" width="40" height="15" fill="#27ae60" rx="7"/>
  <text x="520" y="250" font-family="Arial, sans-serif" font-size="8" text-anchor="middle" fill="white">Add</text>
  
  <!-- Footer -->
  <rect x="0" y="270" width="568" height="50" fill="#34495e" stroke="#2c3e50" stroke-width="1"/>
  <text x="20" y="290" font-family="Arial, sans-serif" font-size="10" fill="white"> 2024 FoodNow</text>
  <text x="20" y="305" font-family="Arial, sans-serif" font-size="8" fill="#bdc3c7">Fast food delivery service</text>
  
  <!-- Social Links -->
  <text x="450" y="290" font-family="Arial, sans-serif" font-size="10" fill="white">Follow Us:</text>
  <circle cx="480" cy="295" r="8" fill="white"/>
  <text x="480" y="299" font-family="Arial, sans-serif" font-size="8" text-anchor="middle" fill="#34495e">f</text>
  <circle cx="500" cy="295" r="8" fill="white"/>
  <text x="500" y="299" font-family="Arial, sans-serif" font-size="8" text-anchor="middle" fill="#34495e">t</text>
  <circle cx="520" cy="295" r="8" fill="white"/>
  <text x="520" y="299" font-family="Arial, sans-serif" font-size="8" text-anchor="middle" fill="#34495e">i</text>
</svg>
